<?xml version="1.0" standalone="no"?>
<!DOCTYPE svg PUBLIC "-//W3C//DTD SVG 20010904//EN"
 "http://www.w3.org/TR/2001/REC-SVG-20010904/DTD/svg10.dtd">
<svg version="1.0" xmlns="http://www.w3.org/2000/svg"
 width="94.000000pt" height="94.000000pt" viewBox="0 0 94.000000 94.000000"
 preserveAspectRatio="xMidYMid meet">
<metadata>
Created by potrace 1.14, written by Peter Selinger 2001-2017
</metadata>
<g transform="translate(0.000000,94.000000) scale(0.100000,-0.100000)"
fill="#000000" stroke="none">
<path d="M105 736 c-38 -17 -61 -42 -77 -86 -15 -38 -15 -49 -4 -96 11 -49 78
-104 128 -104 21 0 21 -2 -9 -21 -42 -27 -72 -89 -68 -141 4 -51 49 -109 96
-124 22 -8 154 -12 387 -13 l352 -2 9 23 c9 25 -11 58 -34 58 -17 0 -25 23
-25 76 0 43 5 52 53 91 31 25 4 60 -40 54 -8 -1 -13 10 -13 28 0 24 -5 32 -25
37 -27 7 -37 29 -37 79 0 49 10 71 38 84 20 9 25 17 22 39 l-3 27 -360 2
c-282 2 -367 -1 -390 -11z"/>
</g>
</svg>
